<svg width="300" height="80" viewBox="0 0 300 80" fill="none" xmlns="http://www.w3.org/2000/svg">
<path fill-rule="evenodd" clip-rule="evenodd" d="M32.4551 50.9779C28.4242 50.9779 25.7114 48.3419 25.7114 43.9377C25.7114 39.4675 28.545 36.7766 32.477 36.7876C34.487 36.7876 36.0905 37.4466 36.9582 38.9184V30H40.7803V50.9779H37.101V48.946C36.1564 50.4178 34.465 50.9779 32.4551 50.9779ZM33.3117 48.0234C35.3656 48.0234 37.079 46.4528 37.079 43.9377C37.079 41.4006 35.3656 39.775 33.3117 39.775C31.192 39.775 29.5445 41.3786 29.5445 43.9377C29.5445 46.4528 31.181 48.0234 33.3117 48.0234ZM49.3804 48.0015C51.1267 48.0015 52.236 47.1887 52.6754 45.5632L55.9264 46.8482C54.9379 49.605 52.6864 50.9889 49.3694 50.9889C44.9762 50.9889 41.802 48.287 41.802 43.7839C41.802 39.7421 44.6796 36.7657 48.8642 36.7657C52.7852 36.7657 55.4431 38.9623 55.4431 42.8613C55.4431 43.4874 55.3882 44.0585 55.2674 44.5967H45.6351C45.6791 46.7714 47.3485 48.0015 49.3804 48.0015ZM48.8752 39.5554C47.3046 39.5554 45.9976 40.478 45.6351 42.0486H51.7308L51.7528 41.9278C51.7528 40.478 50.5886 39.5554 48.8752 39.5554ZM66.8546 45.5632C66.4152 47.1887 65.3059 48.0015 63.5596 48.0015C61.5277 48.0015 59.8583 46.7714 59.8143 44.5967H69.4466C69.5674 44.0585 69.6223 43.4874 69.6223 42.8613C69.6223 38.9623 66.9644 36.7657 63.0434 36.7657C58.8588 36.7657 55.9812 39.7421 55.9812 43.7839C55.9812 48.287 59.1553 50.9889 63.5486 50.9889C66.8656 50.9889 69.1171 49.605 70.1056 46.8482L66.8546 45.5632ZM59.8143 42.0486C60.1768 40.478 61.4838 39.5554 63.0544 39.5554C64.7678 39.5554 65.932 40.478 65.932 41.9278L65.91 42.0486H59.8143ZM83.1096 47.5403V51H70.2922V47.705L78.0793 40.0717H70.5338V36.7768H82.8899V39.9399L75.0808 47.5403H83.1096ZM94.2794 45.5632C93.8401 47.1887 92.7308 48.0015 90.9845 48.0015C88.9526 48.0015 87.2831 46.7714 87.2392 44.5967H96.8715C96.9923 44.0585 97.0472 43.4874 97.0472 42.8613C97.0472 38.9623 94.3893 36.7657 90.4683 36.7657C86.2837 36.7657 83.4061 39.7421 83.4061 43.7839C83.4061 48.287 86.5802 50.9889 90.9735 50.9889C94.2904 50.9889 96.542 49.605 97.5305 46.8482L94.2794 45.5632ZM87.2392 42.0486C87.6016 40.478 88.9086 39.5554 90.4792 39.5554C92.1926 39.5554 93.3568 40.478 93.3568 41.9278L93.3349 42.0486H87.2392ZM17.0791 36.7768H21.7909V39.5335H17.0791V36.7768ZM21.7909 40.5988H17.0791V43.3556H21.7909V40.5988ZM17.0791 44.4209H21.7909V47.1776H17.0791V44.4209ZM4.71179 48.2431H0V50.9999H4.71179V48.2431ZM5.68929 48.2431H10.4011V50.9999H5.68929V48.2431ZM16.1016 48.2431H11.3898V50.9999H16.1016V48.2431ZM17.0791 48.2431H21.7909V50.9999H17.0791V48.2431ZM16.1016 44.4209H11.3898V47.1776H16.1016V44.4209ZM5.68929 44.4209H10.4011V47.1776H5.68929V44.4209ZM10.4011 40.5988H5.68929V43.3556H10.4011V40.5988ZM106.108 42.0923V41.686C106.108 40.6426 105.405 39.6101 104.307 39.5992C103.11 39.5992 102.33 40.4009 102.33 41.8507V50.9997H98.4857V36.7984H102.33V38.9292C102.934 37.6002 104.098 36.7984 105.746 36.7984C108.305 36.7984 109.831 38.5667 109.831 41.005V42.0923H106.108Z" fill="black"/>
</svg>
