<svg width="300" height="80" viewBox="0 0 300 80" fill="none" xmlns="http://www.w3.org/2000/svg">
<path d="M15.0539 25C6.74004 25 0 31.7158 0 40.0001C0 48.2847 6.74004 55 15.0539 55C23.3687 55 30.108 48.2847 30.108 40.0001C30.108 31.7164 23.3689 25 15.0539 25ZM21.9575 46.6344C21.6879 47.0751 21.1091 47.2148 20.6668 46.9443C17.1323 44.7931 12.6828 44.3058 7.44274 45.4988C6.93778 45.6134 6.43444 45.2982 6.3194 44.7948C6.20381 44.2915 6.51893 43.79 7.02515 43.6753C12.7596 42.3699 17.6785 42.932 21.6465 45.3483C22.0888 45.6188 22.229 46.1938 21.9575 46.6344ZM23.8001 42.5501C23.4604 43.1003 22.7377 43.2741 22.1858 42.9356C18.1394 40.4572 11.9712 39.7395 7.18496 41.1871C6.56423 41.374 5.90864 41.0254 5.72024 40.408C5.53329 39.7894 5.88329 39.1374 6.50293 38.9494C11.9701 37.2964 18.7667 38.0971 23.4136 40.9425C23.9655 41.281 24.1399 42.0009 23.8001 42.5501ZM23.9583 38.297C19.1065 35.4255 11.1016 35.1614 6.46932 36.5624C5.72546 36.7872 4.93881 36.3687 4.71339 35.6275C4.48797 34.886 4.90754 34.1027 5.65193 33.8773C10.9695 32.2688 19.8094 32.5796 25.3953 35.8839C26.0658 36.2795 26.2852 37.1406 25.8879 37.8064C25.4924 38.4731 24.6252 38.6929 23.9583 38.297ZM40.9567 38.8473C38.3573 38.2296 37.8953 37.7962 37.8953 36.8853C37.8953 36.0248 38.7079 35.4457 39.9177 35.4457C41.0897 35.4457 42.251 35.8855 43.4698 36.7907C43.5057 36.8182 43.5525 36.8291 43.5974 36.8219C43.6442 36.8151 43.6837 36.7902 43.7107 36.7528L44.9798 34.9701C45.0319 34.8967 45.0176 34.7955 44.9474 34.7394C43.4968 33.58 41.8645 33.0163 39.9554 33.0163C37.1493 33.0163 35.1881 34.6945 35.1881 37.0956C35.1881 39.6705 36.8797 40.5822 39.8026 41.286C42.2887 41.8569 42.7094 42.3351 42.7094 43.1899C42.7094 44.1375 41.8609 44.7268 40.4947 44.7268C38.9775 44.7268 37.7389 44.2163 36.3548 43.0233C36.3206 42.9929 36.2739 42.9803 36.2307 42.9821C36.184 42.9857 36.1426 43.0072 36.1139 43.0412L34.6902 44.7286C34.6308 44.8002 34.638 44.9041 34.7063 44.965C36.317 46.398 38.298 47.1539 40.4372 47.1539C43.4608 47.1539 45.4148 45.5078 45.4148 42.9588C45.4202 40.8081 44.1277 39.6169 40.9621 38.8496L40.9567 38.8473ZM52.2566 36.293C50.9462 36.293 49.8712 36.8074 48.9831 37.8615V36.675C48.9831 36.5814 48.9076 36.505 48.8142 36.505H46.4862C46.3927 36.505 46.3172 36.5814 46.3172 36.675V49.8586C46.3172 49.9518 46.3927 50.0288 46.4862 50.0288H48.8142C48.9076 50.0288 48.9831 49.9518 48.9831 49.8586V45.6976C49.8712 46.6882 50.9462 47.1736 52.2566 47.1736C54.6924 47.1736 57.1588 45.3053 57.1588 41.7338C57.1624 38.1616 54.696 36.2928 52.2584 36.2928L52.2566 36.293ZM54.4515 41.7338C54.4515 43.5517 53.328 44.8217 51.7173 44.8217C50.1264 44.8217 48.9256 43.4944 48.9256 41.7338C48.9256 39.973 50.1264 38.6461 51.7173 38.6461C53.301 38.6459 54.4515 39.9444 54.4515 41.7338ZM63.4774 36.293C60.3406 36.293 57.8832 38.6997 57.8832 41.7727C57.8832 44.8128 60.3244 47.1933 63.4397 47.1933C66.5873 47.1933 69.0519 44.7948 69.0519 41.7338C69.0519 38.6832 66.6035 36.293 63.4774 36.293ZM63.4774 44.8396C61.8092 44.8396 60.5509 43.5034 60.5509 41.7329C60.5509 39.9544 61.7661 38.6638 63.4397 38.6638C65.1187 38.6638 66.3842 39.9996 66.3842 41.7718C66.3842 43.5499 65.1618 44.8396 63.4774 44.8396ZM75.7499 36.505H73.1882V33.8959C73.1882 33.8024 73.1127 33.7261 73.0193 33.7261H70.6913C70.5979 33.7261 70.5206 33.8024 70.5206 33.8959V36.505H69.4024C69.309 36.505 69.2335 36.5814 69.2335 36.675V38.6681C69.2335 38.7616 69.309 38.8381 69.4024 38.8381H70.5206V43.996C70.5206 46.0792 71.5614 47.136 73.6161 47.136C74.4502 47.136 75.1423 46.964 75.7948 46.595C75.8487 46.5664 75.8811 46.509 75.8811 46.4481V44.5494C75.8811 44.4921 75.8505 44.4366 75.8002 44.4061C75.7499 44.3739 75.687 44.3721 75.6348 44.399C75.1872 44.6229 74.754 44.7268 74.2686 44.7268C73.5226 44.7268 73.1882 44.3882 73.1882 43.6323V38.839H75.7499C75.8434 38.839 75.9188 38.7627 75.9188 38.669V36.6761C75.9224 36.5824 75.8469 36.5061 75.7517 36.5061L75.7499 36.505ZM84.6733 36.5153V36.1948C84.6733 35.2521 85.0364 34.8317 85.849 34.8317C86.3343 34.8317 86.7244 34.9277 87.1612 35.0728C87.2152 35.0896 87.2709 35.0812 87.314 35.0491C87.359 35.0171 87.3841 34.9657 87.3841 34.9112V32.957C87.3841 32.8823 87.3374 32.8162 87.2637 32.7942C86.8035 32.6575 86.2139 32.5172 85.3295 32.5172C83.1813 32.5172 82.0434 33.7235 82.0434 36.0042V36.495H80.9253C80.8318 36.495 80.7545 36.5713 80.7545 36.6648V38.6681C80.7545 38.7616 80.8318 38.8381 80.9253 38.8381H82.0434V46.7921C82.0434 46.887 82.1207 46.9622 82.2142 46.9622H84.5403C84.6356 46.9622 84.7111 46.887 84.7111 46.7921V38.8387H86.8844L90.2136 46.7921C89.8361 47.6268 89.464 47.7934 88.9571 47.7934C88.5472 47.7934 88.114 47.6716 87.6736 47.4297C87.6322 47.4082 87.5819 47.4047 87.5387 47.4172C87.4938 47.4333 87.4561 47.4656 87.4381 47.5086L86.6489 49.2335C86.6112 49.3159 86.6435 49.4108 86.7226 49.4538C87.5459 49.8981 88.2884 50.0879 89.2069 50.0879C90.9255 50.0879 91.8764 49.289 92.7123 47.1431L96.7498 36.7474C96.7714 36.6951 96.7642 36.636 96.7318 36.5896C96.7013 36.5436 96.6491 36.5158 96.5934 36.5158H94.1702C94.0965 36.5158 94.0318 36.5618 94.0084 36.6297L91.5259 43.6932L88.8079 36.6251C88.7827 36.5593 88.7198 36.5158 88.6497 36.5158L84.6733 36.5153ZM79.4997 36.505H77.1718C77.0783 36.505 77.001 36.5814 77.001 36.675V46.7921C77.001 46.887 77.0783 46.9622 77.1718 46.9622H79.4997C79.5932 46.9622 79.6705 46.887 79.6705 46.7921V36.6758C79.6705 36.5821 79.595 36.505 79.4997 36.505ZM78.3493 31.8982C77.4271 31.8982 76.6793 32.6419 76.6793 33.5606C76.6793 34.4799 77.4271 35.2245 78.3493 35.2245C79.2714 35.2245 80.0174 34.4799 80.0174 33.5606C80.0174 32.6421 79.2696 31.8982 78.3493 31.8982ZM98.738 39.7581C97.8176 39.7581 97.1003 39.021 97.1003 38.1259C97.1003 37.2309 97.8266 36.4853 98.747 36.4853C99.6674 36.4853 100.385 37.2223 100.385 38.1166C100.385 39.0117 99.6584 39.7581 98.738 39.7581ZM98.747 36.6476C97.9075 36.6476 97.2729 37.3122 97.2729 38.1259C97.2729 38.9393 97.9039 39.5949 98.738 39.5949C99.5775 39.5949 100.212 38.9309 100.212 38.1166C100.212 37.3032 99.5811 36.6476 98.747 36.6476ZM99.1101 38.2845L99.5739 38.9307H99.182L98.7649 38.3378H98.4072V38.9307H98.0801V37.2176H98.8458C99.2467 37.2176 99.5092 37.4213 99.5092 37.7641C99.511 38.045 99.3474 38.2166 99.1119 38.2845H99.1101ZM98.8333 37.5115H98.4072V38.0534H98.8333C99.0454 38.0534 99.173 37.9497 99.173 37.7822C99.173 37.6059 99.0454 37.5115 98.8333 37.5115Z" fill="black"/>
</svg>
