<svg width="300" height="80" viewBox="0 0 300 80" fill="none" xmlns="http://www.w3.org/2000/svg">
<path fill-rule="evenodd" clip-rule="evenodd" d="M27.9773 33.1227C27.6503 31.895 26.6813 30.9271 25.4503 30.5957C23.2229 30 14.2865 30 14.2865 30C14.2865 30 5.35455 30 3.12266 30.5957C1.89496 30.9227 0.927109 31.8917 0.595684 33.1227C0 35.3501 0 40 0 40C0 40 0 44.6499 0.595684 46.8773C0.922704 48.105 1.89165 49.0729 3.12266 49.4043C5.35455 50 14.2865 50 14.2865 50C14.2865 50 23.2229 50 25.4503 49.4043C26.678 49.0773 27.6459 48.1083 27.9773 46.8773C28.573 44.6499 28.573 40 28.573 40C28.573 40 28.573 35.3501 27.9773 33.1227ZM84.871 43.8727C84.871 44.6776 84.8941 45.2777 84.9437 45.6818C84.9888 46.0815 85.089 46.3777 85.2388 46.5594C85.3885 46.7411 85.6208 46.8368 85.9346 46.8368C86.3575 46.8368 86.6481 46.6728 86.8023 46.3458C86.9565 46.0187 87.0434 45.4726 87.0567 44.7096L89.4889 44.8505C89.5022 44.9595 89.5077 45.1093 89.5077 45.3008C89.5077 46.4603 89.1894 47.3235 88.5574 47.8961C87.9254 48.4686 87.0302 48.7549 85.8708 48.7549C84.4801 48.7549 83.5068 48.3189 82.9485 47.4457C82.3892 46.5726 82.1117 45.2271 82.1117 43.4004V41.2136C82.1117 39.3319 82.4024 37.9633 82.9794 37.0956C83.5563 36.2324 84.5473 35.7996 85.9523 35.7996C86.9201 35.7996 87.6611 35.9769 88.1797 36.3315C88.6984 36.686 89.0617 37.2365 89.2753 37.9864C89.4845 38.7362 89.5935 39.7723 89.5935 41.0914V43.2374H84.871V43.8727ZM85.23 37.9688C85.089 38.146 84.9932 38.4367 84.9437 38.8364C84.8941 39.2361 84.871 39.8505 84.871 40.6642V41.5638H86.9344V40.6642C86.9344 39.8593 86.9069 39.2504 86.853 38.8364C86.7979 38.4224 86.6988 38.1273 86.5579 37.9588C86.4169 37.7904 86.1945 37.7045 85.8939 37.7045C85.5933 37.7001 85.3709 37.7915 85.23 37.9688ZM71.2858 48.5588V36.0362H68.466V45.991C68.357 46.2223 68.1885 46.4139 67.9661 46.5636C67.7437 46.7134 67.5069 46.786 67.2614 46.786C66.9751 46.786 66.7703 46.6638 66.6481 46.4271C66.5259 46.1903 66.4664 45.7907 66.4664 45.2313V36.0362H63.6488V45.391C63.6488 46.5504 63.8447 47.4004 64.24 47.9455C64.6353 48.4905 65.2497 48.7636 66.081 48.7636C67.2768 48.7636 68.1764 48.1866 68.7765 47.0272H68.8359L69.0815 48.5588H71.2858ZM41.4755 48.1952C40.9117 47.8131 40.5076 47.2229 40.2709 46.418C40.0341 45.6131 39.9119 44.5451 39.9119 43.2084V41.3905C39.9119 40.0406 40.0485 38.9582 40.3215 38.1401C40.5946 37.322 41.0218 36.7263 41.5988 36.3542C42.1757 35.9809 42.9355 35.7904 43.8758 35.7904C44.8029 35.7904 45.5439 35.9809 46.1033 36.363C46.6626 36.745 47.0711 37.3407 47.331 38.1489C47.5897 38.9582 47.7175 40.0395 47.7175 41.385V43.2029C47.7175 44.5396 47.5897 45.612 47.3398 46.4213C47.0899 47.2306 46.6803 47.8263 46.1121 48.1985C45.5483 48.5717 44.7798 48.7622 43.8119 48.7622C42.821 48.7677 42.0392 48.5772 41.4755 48.1952ZM44.6433 46.2319C44.7974 45.8223 44.88 45.1551 44.88 44.2324V40.328C44.88 39.4284 44.8029 38.7732 44.6433 38.3548C44.4891 37.9408 44.2116 37.7316 43.8163 37.7316C43.4343 37.7316 43.1667 37.9408 43.0071 38.3548C42.8529 38.7688 42.7703 39.4273 42.7703 40.328V44.2324C42.7703 45.1595 42.843 45.8278 42.9927 46.2319C43.1425 46.6415 43.4156 46.8452 43.8108 46.8452C44.2116 46.8452 44.4847 46.6404 44.6433 46.2319ZM31.4019 31.418L34.6115 43.0046V48.5629H37.3885V43.0035L40.6344 31.4125H37.8344L36.6706 36.6855C36.3435 38.227 36.1343 39.3226 36.0385 39.9767H35.9571C35.8205 39.0639 35.6113 37.9639 35.325 36.6679L34.2019 31.418H31.4019ZM56.823 36.0362V48.5588H54.6186L54.3731 47.0272H54.3136C53.7135 48.1866 52.8139 48.7636 51.6182 48.7636C50.7868 48.7636 50.1724 48.4905 49.7772 47.9455C49.3819 47.4004 49.1859 46.5504 49.1859 45.391V36.0362H52.0035V45.2313C52.0035 45.7907 52.063 46.1903 52.1852 46.4271C52.3074 46.6638 52.5122 46.786 52.7985 46.786C53.0441 46.786 53.2808 46.7134 53.5032 46.5636C53.7256 46.4139 53.8941 46.2223 54.0031 45.991V36.0362H56.823ZM61.6864 33.6868H64.482V31.4186H56.127V33.6868H58.9271V48.5602H61.6864V33.6868ZM80.6163 38.0412C80.4434 37.2506 80.1704 36.678 79.7894 36.3235C79.4073 35.9689 78.8843 35.7917 78.2171 35.7917C77.6985 35.7917 77.2173 35.937 76.7669 36.2321C76.3166 36.5228 75.972 36.9093 75.7264 37.3871H75.7033V30.7873H72.9847V48.5642H75.3124L75.5987 47.3783H75.6582C75.8762 47.8011 76.2032 48.1326 76.6403 48.3781C77.0763 48.6236 77.5586 48.7459 78.0904 48.7459C79.0451 48.7459 79.7454 48.3054 80.1946 47.4279C80.6449 46.5503 80.8674 45.1784 80.8674 43.3098V41.3279C80.8707 39.9273 80.7848 38.8317 80.6163 38.0412ZM78.0299 43.1502C78.0299 44.0641 77.9935 44.7776 77.9165 45.2962C77.8438 45.8148 77.7161 46.1825 77.5388 46.4006C77.3615 46.6186 77.1248 46.7276 76.8253 46.7276C76.593 46.7276 76.3794 46.6725 76.1801 46.5635C75.9841 46.4545 75.8211 46.2905 75.6978 46.0724V38.9584C75.7936 38.617 75.9566 38.3407 76.1889 38.1216C76.4212 37.9035 76.6711 37.7945 76.9431 37.7945C77.2294 37.7945 77.4518 37.9079 77.6071 38.1304C77.7612 38.3528 77.8702 38.7349 77.9341 39.2623C77.9935 39.7941 78.0255 40.5483 78.0255 41.5305V43.1491L78.0299 43.1502ZM93.3776 31.4186H97.2248L99.8211 45.1237L102.29 31.4186H106.265V48.7639H103.828V34.353L100.943 48.7463H98.6353L95.8782 34.6734V48.7463H93.3776V31.4186ZM113.638 48.7636H115.625V36.0362H112.932V46.0857C112.482 46.8554 110.88 47.4962 110.88 45.958V36.0373H108.187V46.3434C108.187 48.5235 111.137 50.4471 113.188 47.1769L113.638 48.7636ZM126.011 36.0362H128.512V48.7636H126.011V36.0362ZM127.326 34.5452C126.462 34.5452 125.755 33.8383 125.755 32.974V32.5897C125.755 31.7253 126.462 31.0184 127.326 31.0184C128.19 31.0184 128.897 31.7253 128.897 32.5897V32.974C128.896 33.8383 128.19 34.5452 127.326 34.5452ZM124.153 40.0914H121.973L121.941 38.7129C121.941 37.3773 119.515 37.1747 119.515 39.0124C119.515 39.7284 120.514 40.5849 121.608 41.5222C122.929 42.6545 124.387 43.9047 124.387 45.1674C124.387 47.4753 123.447 48.9716 120.754 48.9716C118.062 48.9716 117.292 47.2187 117.292 46.0648V44.7402H119.6V45.8941C119.6 46.6208 120.07 47.1339 120.84 47.1339C122.464 47.1339 122.379 44.7831 120.413 43.7569C118.105 41.9611 117.292 40.8292 117.292 39.226C117.292 37.6228 118.062 35.828 120.883 35.828C124.281 35.828 124.217 39.0333 124.153 40.0914ZM133.106 39.0542C132.881 41.6005 133.018 43.6213 133.112 45.0314C133.126 45.2311 133.138 45.4186 133.149 45.5935C133.266 47.5138 135.286 47.5171 135.286 45.5506V44.1401H137.637C137.637 46.7045 136.74 48.7988 134.217 48.7988C131.267 48.7988 130.413 46.7045 130.413 44.4814V40.7631C130.413 37.7715 131.696 35.762 134.131 35.762C137.379 35.762 137.465 38.0699 137.465 39.139V40.5495L135.285 40.7202V39.0102C135.286 37.8144 133.79 36.7464 133.106 39.0542ZM18.8558 40.0001L11.4323 44.2866V35.7136L18.8558 40.0001Z" fill="black"/>
</svg>
