<svg width="300" height="80" viewBox="0 0 300 80" fill="none" xmlns="http://www.w3.org/2000/svg">
<path d="M40.0674 51.7688V36.1658H39.9519L33.7107 51.7688H31.2835L25.0423 36.1658H24.9267V51.7688H22.0373V30.6181H25.7358L32.4393 47.4925H32.5549L39.2584 30.6181H43.0725V51.7688H40.0674ZM59.3689 51.7688H56.3639V49.1106H56.2483C55.4393 50.9598 53.8212 52 51.5096 52C48.1579 52 46.1931 49.804 46.1931 46.2211V36.2814H49.3137V45.6432C49.3137 47.9548 50.4694 49.2261 52.5499 49.2261C54.8614 49.2261 56.1328 47.608 56.1328 45.1809V36.2814H59.2534L59.3689 51.7688ZM67.9217 36.0503C71.5046 36.0503 73.7006 38.0151 73.8162 40.9045H70.9267C70.6956 39.402 69.6554 38.4774 67.9217 38.4774C66.188 38.4774 65.0323 39.2864 65.0323 40.5578C65.0323 41.4824 65.7257 42.1759 67.3438 42.5226L69.771 43.1005C72.8916 43.794 74.0473 45.0653 74.0473 47.2613C74.0473 50.0352 71.5046 52 67.9217 52C64.1076 52 61.7961 50.1508 61.5649 47.1457H64.6855C64.9167 48.7638 66.0725 49.5729 67.9217 49.5729C69.771 49.5729 70.9267 48.7638 70.9267 47.4925C70.9267 46.4523 70.3488 45.8744 68.7308 45.5276L66.3036 44.9497C63.4142 44.2563 62.0272 42.8693 62.0272 40.5578C62.0272 37.8995 64.3388 36.0503 67.9217 36.0503ZM76.3589 32.2362C76.3589 31.196 77.1679 30.3869 78.2081 30.3869C79.2483 30.3869 80.0574 31.196 80.0574 32.2362C80.0574 33.2764 79.2483 34.0854 78.2081 34.0854C77.1679 34.0854 76.3589 33.2764 76.3589 32.2362ZM76.59 36.2814H79.7106V51.7688H76.59V36.2814ZM92.8865 41.598C92.5398 39.9799 91.384 38.593 89.3036 38.593C86.8765 38.593 85.2584 40.6734 85.2584 43.9095C85.2584 47.2613 86.8765 49.2261 89.3036 49.2261C91.2684 49.2261 92.4242 48.1859 92.8865 46.3367H95.8915C95.5448 49.5729 93.0021 51.8844 89.3036 51.8844C84.9117 51.8844 82.1378 48.8794 82.1378 43.9095C82.1378 39.0553 84.9117 35.9347 89.3036 35.9347C93.2333 35.9347 95.5448 38.4774 95.8915 41.4824L92.8865 41.598ZM12.4443 32.6985C11.6353 33.6231 10.3639 34.4322 9.09257 34.3166C8.86141 32.9296 9.55488 31.5427 10.2483 30.7337C11.0574 29.6935 12.4443 29 13.6001 29C13.7157 30.2714 13.2534 31.6583 12.4443 32.6985ZM13.6001 34.5477C14.2936 34.5477 16.374 34.7789 17.7609 36.8593C17.6453 36.9749 15.3338 38.3618 15.3338 41.2513C15.3338 44.7186 18.3388 45.8744 18.3388 45.8744C18.3388 45.99 17.8765 47.4925 16.8363 49.1106C15.9117 50.4975 14.8715 51.8844 13.3689 51.8844C11.8664 51.8844 11.4041 50.9598 9.67046 50.9598C7.93679 50.9598 7.3589 51.8844 5.97196 51.8844C4.46945 51.8844 3.31367 50.3819 2.38905 48.995C0.424225 46.1055 -1.07829 40.9045 1.00211 37.4372C1.92674 35.7035 3.77598 34.5477 5.62523 34.5477C7.12774 34.5477 8.51468 35.5879 9.32372 35.5879C10.1328 35.5879 11.7509 34.4322 13.6001 34.5477Z" fill="black"/>
</svg>
