<svg width="300" height="80" viewBox="0 0 300 80" fill="none" xmlns="http://www.w3.org/2000/svg">
<path d="M0.285141 42.0567L0 44.6099L0.285141 47.1631C0.285141 47.305 0.427711 47.305 0.427711 47.305C0.570281 47.305 0.570281 47.1631 0.570281 47.1631L0.997992 44.6099L0.570281 42.0567C0.570281 41.9149 0.427711 41.9149 0.427711 41.9149C0.427711 41.9149 0.285141 41.9149 0.285141 42.0567ZM1.99598 40.4965L1.56827 44.6099L1.99598 48.7234C1.99598 48.8652 2.13855 48.8652 2.13855 48.8652C2.28112 48.8652 2.28112 48.7234 2.28112 48.7234L2.85141 44.6099L2.28112 40.4965C2.28112 40.3546 2.13855 40.3546 2.13855 40.3546L1.99598 40.4965ZM7.41365 39.9291L7.12851 44.6099L7.41365 49.5745C7.41365 49.7163 7.55622 49.8582 7.6988 49.8582C7.84137 49.8582 7.98394 49.7163 7.98394 49.5745L8.55422 44.6099L8.12651 39.9291C8.12651 39.7872 7.98394 39.6454 7.84137 39.6454C7.55622 39.6454 7.41365 39.7872 7.41365 39.9291ZM3.8494 39.6454L3.42169 44.6099L3.8494 49.2908C3.8494 49.4326 3.99197 49.5745 4.13454 49.5745C4.13454 49.5745 4.27711 49.4326 4.27711 49.2908L4.70482 44.6099L4.27711 39.6454C4.27711 39.5035 4.13454 39.3617 3.99197 39.3617C3.99197 39.5035 3.8494 39.5035 3.8494 39.6454ZM5.56024 39.5035L5.13253 44.6099L5.56024 49.4326C5.56024 49.5745 5.70281 49.7163 5.84538 49.7163C5.98795 49.7163 6.13052 49.5745 6.13052 49.4326L6.55823 44.6099L6.13052 39.5035C6.13052 39.3617 5.98795 39.2199 5.84538 39.2199C5.70281 39.2199 5.70281 39.3617 5.56024 39.5035ZM9.26707 36.9504L8.83936 44.6099L9.26707 49.5745C9.26707 49.7163 9.40964 49.8582 9.55221 49.8582C9.83735 49.8582 9.97992 49.7163 9.97992 49.5745L10.4076 44.6099L9.97992 36.9504C9.97992 36.8085 9.83735 36.6667 9.69478 36.6667C9.40964 36.6667 9.26707 36.8085 9.26707 36.9504ZM11.1205 35.2482L10.8353 44.6099L11.1205 49.5745C11.1205 49.8582 11.2631 50 11.5482 50C11.6908 50 11.9759 49.8582 11.9759 49.5745L12.4036 44.6099L11.9759 35.2482C11.9759 34.9645 11.8333 34.8227 11.5482 34.8227C11.2631 34.8227 11.1205 34.9645 11.1205 35.2482ZM99.0863 34.6809V42.9078C98.9438 42.6241 98.5161 41.9149 98.2309 41.4894L93.6687 34.6809H91.245V47.5887H93.8112V39.078C93.9538 39.3617 94.3815 40.0709 94.6667 40.4965L99.3715 47.5887H101.653V34.6809H99.0863ZM107.641 37.234H109.066C111.775 37.234 112.916 38.5106 112.916 41.2057C112.916 43.617 111.633 45.1773 108.924 45.1773H107.641V37.234ZM105.074 47.5887H108.924C112.203 47.5887 115.624 45.7447 115.624 41.2057C115.624 36.5248 112.916 34.8227 109.209 34.8227H105.074V34.6809V47.5887ZM130.594 34.6809V47.5887H138.436V45.0355H133.303V34.6809H130.594ZM169.659 37.234H171.084C173.793 37.234 174.934 38.5106 174.934 41.2057C174.934 43.617 173.651 45.1773 170.942 45.1773H169.659V37.234ZM167.092 47.5887H170.942C173.793 47.5887 176.787 46.1702 177.5 42.766V39.5035C176.93 36.0993 174.506 34.8227 171.227 34.8227H167.092V34.6809V47.5887ZM52.0382 38.3688C52.0382 40.922 53.749 41.6312 56.0301 42.1986C58.4538 42.766 58.8815 43.0496 58.8815 43.9007C58.8815 44.8936 58.1687 45.3191 56.6004 45.3191C55.3173 45.3191 54.1767 44.8936 53.3213 43.9007L51.4679 45.6028C52.4659 47.0213 54.3193 48.0142 56.4578 48.0142C60.0221 48.0142 61.5904 46.3121 61.5904 43.9007C61.5904 41.0638 59.3092 40.3546 57.3133 39.9291C55.3173 39.5035 54.747 39.2199 54.747 38.3688C54.747 37.8014 55.1747 37.234 56.6004 37.234C57.741 37.234 58.739 37.6596 59.5944 38.5106L61.4478 36.6667C60.1647 35.3901 58.739 34.6809 56.743 34.6809C56.6004 34.6809 56.4578 34.6809 56.3153 34.6809C53.8916 34.6809 52.0382 36.0993 52.0382 38.3688ZM66.2952 41.2057C66.2952 38.9362 67.1506 37.0922 69.2892 37.0922C71.4277 37.0922 72.2831 38.9362 72.2831 41.2057C72.2831 43.4752 71.4277 45.3191 69.2892 45.3191C67.1506 45.3191 66.2952 43.4752 66.2952 41.2057ZM63.5863 41.2057C63.5863 45.1773 65.7249 47.8723 69.1466 47.8723C72.7108 47.8723 74.8494 45.1773 74.8494 41.2057C74.8494 37.234 72.7108 34.539 69.1466 34.539C65.7249 34.539 63.5863 37.234 63.5863 41.2057ZM85.3996 34.539V41.9149C85.3996 44.0426 84.4016 45.3191 82.6908 45.3191C80.9799 45.3191 79.9819 44.0426 79.9819 41.9149V34.6809H77.4157V41.9149C77.4157 45.6028 79.5542 47.7305 82.6908 47.7305C85.9699 47.7305 87.9659 45.6028 87.9659 41.773V34.539H85.3996ZM117.763 41.2057C117.763 45.3191 120.044 47.8723 123.466 47.8723C125.89 47.8723 127.315 46.7376 128.313 44.8936L126.175 43.617C125.462 44.7518 124.749 45.3191 123.608 45.3191C121.612 45.3191 120.472 43.617 120.472 41.2057C120.472 38.7943 121.612 37.0922 123.466 37.0922C124.606 37.0922 125.319 37.6596 125.89 38.5106L128.313 37.3759C127.458 35.6738 126.032 34.539 123.608 34.539C120.187 34.539 117.763 37.234 117.763 41.2057ZM142.285 41.2057C142.285 38.9362 143.141 37.0922 145.279 37.0922C147.418 37.0922 148.273 38.9362 148.273 41.2057C148.273 43.4752 147.418 45.3191 145.279 45.3191C143.141 45.3191 142.285 43.4752 142.285 41.2057ZM139.576 41.2057C139.576 45.1773 141.715 47.8723 145.137 47.8723C148.701 47.8723 150.697 45.1773 150.697 41.2057C150.697 37.234 148.558 34.539 145.137 34.539C141.715 34.539 139.576 37.234 139.576 41.2057ZM161.247 34.539V41.9149C161.247 44.0426 160.249 45.3191 158.538 45.3191C156.827 45.3191 155.829 44.0426 155.829 41.9149V34.6809H153.263V41.9149C153.263 45.6028 155.402 47.7305 158.538 47.7305C161.817 47.7305 163.813 45.6028 163.813 41.773V34.539H161.247ZM18.6767 34.8227L18.3916 44.6099L18.6767 49.2908C18.6767 49.5745 18.9618 49.8582 19.247 49.8582C19.5321 49.8582 19.8173 49.5745 19.8173 49.2908L20.1024 44.6099L19.8173 34.6809C19.8173 34.3972 19.5321 34.1135 19.247 34.1135C18.8193 34.2553 18.6767 34.3972 18.6767 34.8227ZM12.9739 34.3972L12.6888 44.6099L12.9739 49.4326C12.9739 49.7163 13.1165 49.8582 13.4016 49.8582C13.6867 49.8582 13.8293 49.7163 13.8293 49.4326L14.1145 44.6099L13.8293 34.3972C13.8293 34.1135 13.6867 33.9716 13.4016 33.9716C13.1165 33.9716 12.9739 34.2553 12.9739 34.3972ZM16.6807 34.3972L16.3956 44.6099L16.6807 49.4326C16.6807 49.7163 16.9659 50 17.251 50C17.5361 50 17.8213 49.7163 17.8213 49.4326L18.1064 44.6099L17.8213 34.3972C17.8213 34.1135 17.5361 33.8298 17.251 33.8298C16.9659 33.8298 16.6807 34.1135 16.6807 34.3972ZM14.8273 34.1135L14.5422 44.6099L14.8273 49.4326C14.8273 49.7163 14.9699 49.8582 15.255 49.8582C15.5402 49.8582 15.6827 49.7163 15.6827 49.4326L15.9679 44.6099L15.6827 34.1135C15.6827 33.8298 15.3976 33.6879 15.255 33.6879C15.1124 33.6879 14.8273 33.8298 14.8273 34.1135ZM20.5301 32.8369L20.245 44.6099L20.5301 49.2908C20.5301 49.5745 20.8153 49.8582 21.1004 49.8582C21.3855 49.8582 21.6707 49.5745 21.6707 49.2908L21.9558 44.6099L21.6707 32.8369C21.6707 32.5532 21.3855 32.2695 21.1004 32.2695C20.8153 32.2695 20.5301 32.5532 20.5301 32.8369ZM22.5261 31.844L22.241 44.6099L22.5261 49.2908C22.5261 49.5745 22.8112 49.8582 23.0964 49.8582C23.3815 49.8582 23.6667 49.5745 23.6667 49.2908L23.9518 44.6099L23.6667 31.844C23.6667 31.5603 23.3815 31.2766 23.0964 31.2766H22.9538C22.6687 31.2766 22.5261 31.5603 22.5261 31.844ZM24.8072 30.5674C24.3795 30.7092 24.2369 30.8511 24.2369 31.2766V49.2908C24.2369 49.5745 24.5221 49.8582 24.8072 50H40.6325C43.7691 50 46.3353 47.4468 46.3353 44.3262C46.3353 41.2057 43.7691 38.6525 40.6325 38.6525C39.9197 38.6525 39.0643 38.7943 38.494 39.078C38.0663 33.9716 33.7892 30 28.5141 30C28.2289 30 28.0863 30 27.8012 30C26.8032 30 25.8052 30.2837 24.8072 30.5674Z" fill="black"/>
</svg>
