<svg width="300" height="80" viewBox="0 0 300 80" fill="none" xmlns="http://www.w3.org/2000/svg">
<path fill-rule="evenodd" clip-rule="evenodd" d="M99.2986 47.9389L97.8652 44.3857H91.2231L89.7897 47.9389H86.2567L92.9997 32H96.1895L102.933 47.9389H99.2986ZM94.5341 36.1826L92.4344 41.3198H96.6135L94.5341 36.1826Z" fill="black"/>
<path fill-rule="evenodd" clip-rule="evenodd" d="M66.6332 47.9389H72.7706C77.7168 47.9389 81.1287 44.4872 81.1287 40.0202V39.9796C81.1287 35.5328 77.7168 32.1217 72.7706 32.1217H66.6332V47.9389ZM72.7706 35.2487C75.597 35.2487 77.515 37.2181 77.515 40.0202V40.0607C77.515 42.8628 75.597 44.7918 72.7706 44.7918H70.1057V35.2487H72.7706Z" fill="black"/>
<path d="M34.4119 35.33V32.1219H47.4539V35.33H42.6691V47.9391H39.2169V35.33H34.4119Z" fill="black"/>
<path d="M3.94003 32.1511L0 36.1136L3.94003 40.0761L7.86775 36.1259L11.8005 40.0813L7.86372 44.0406L11.8005 48L15.7373 44.0406L11.8005 40.0813L15.7373 36.1219L19.6741 40.0813L23.611 36.1219L19.6741 32.1626L15.7373 36.1219L11.8005 32.1626L7.87603 36.1097L3.94003 32.1511Z" fill="black"/>
<path d="M58.2145 32.1219H54.7622V47.9391H58.2145V32.1219Z" fill="black"/>
<path d="M109.837 32.1217V47.9389H121.143V44.7713H113.289V32.1217H109.837Z" fill="black"/>
</svg>
